<svg width="680" height="820" viewBox="0 0 680 820" xmlns="http://www.w3.org/2000/svg"
  style="font-family: sans-serif; background: white;">
<defs>
  <marker id="arrow" viewBox="0 0 10 10" refX="8" refY="5" markerWidth="6" markerHeight="6" orient="auto-start-reverse">
    <path d="M2 1L8 5L2 9" fill="none" stroke="context-stroke" stroke-width="1.5" stroke-linecap="round" stroke-linejoin="round"/>
  </marker>
</defs>

<!-- ARDUINO CENTER -->
<rect x="255" y="30" width="170" height="560" rx="12" fill="none" stroke="#888" stroke-width="1.5"/>
<text x="340" y="22" text-anchor="middle" font-size="13" font-weight="600" fill="#222">Arduino UNO R4 WiFi</text>

<!-- Pin rows -->
<rect x="263" y="46"  width="154" height="32" rx="5" fill="#f0f0f0" stroke="#bbb" stroke-width="0.5"/><text x="340" y="67"  text-anchor="middle" font-size="12" fill="#333">Pin 0 (RX)</text>
<rect x="263" y="84"  width="154" height="32" rx="5" fill="#f0f0f0" stroke="#bbb" stroke-width="0.5"/><text x="340" y="105" text-anchor="middle" font-size="12" fill="#333">Pin 1 (TX)</text>
<rect x="263" y="122" width="154" height="32" rx="5" fill="#f0f0f0" stroke="#bbb" stroke-width="0.5"/><text x="340" y="143" text-anchor="middle" font-size="12" fill="#333">D2</text>
<rect x="263" y="160" width="154" height="32" rx="5" fill="#f0f0f0" stroke="#bbb" stroke-width="0.5"/><text x="340" y="181" text-anchor="middle" font-size="12" fill="#333">D3</text>
<rect x="263" y="198" width="154" height="32" rx="5" fill="#f0f0f0" stroke="#bbb" stroke-width="0.5"/><text x="340" y="219" text-anchor="middle" font-size="12" fill="#333">D4</text>
<rect x="263" y="236" width="154" height="32" rx="5" fill="#f0f0f0" stroke="#bbb" stroke-width="0.5"/><text x="340" y="257" text-anchor="middle" font-size="12" fill="#333">D5</text>
<rect x="263" y="274" width="154" height="32" rx="5" fill="#f0f0f0" stroke="#bbb" stroke-width="0.5"/><text x="340" y="295" text-anchor="middle" font-size="12" fill="#333">D8</text>
<rect x="263" y="312" width="154" height="32" rx="5" fill="#f0f0f0" stroke="#bbb" stroke-width="0.5"/><text x="340" y="333" text-anchor="middle" font-size="12" fill="#333">D9</text>
<rect x="263" y="350" width="154" height="32" rx="5" fill="#f0f0f0" stroke="#bbb" stroke-width="0.5"/><text x="340" y="371" text-anchor="middle" font-size="12" fill="#333">D10</text>
<rect x="263" y="388" width="154" height="32" rx="5" fill="#f0f0f0" stroke="#bbb" stroke-width="0.5"/><text x="340" y="409" text-anchor="middle" font-size="12" fill="#333">D11 (MOSI)</text>
<rect x="263" y="426" width="154" height="32" rx="5" fill="#f0f0f0" stroke="#bbb" stroke-width="0.5"/><text x="340" y="447" text-anchor="middle" font-size="12" fill="#333">D12 (MISO)</text>
<rect x="263" y="464" width="154" height="32" rx="5" fill="#f0f0f0" stroke="#bbb" stroke-width="0.5"/><text x="340" y="485" text-anchor="middle" font-size="12" fill="#333">D13 (SCK)</text>
<rect x="263" y="502" width="154" height="32" rx="5" fill="#f0f0f0" stroke="#bbb" stroke-width="0.5"/><text x="340" y="523" text-anchor="middle" font-size="12" fill="#333">D6 (PWM)</text>

<!-- Power rails -->
<rect x="263" y="546" width="154" height="32" rx="5" fill="#fde8e2" stroke="#C04828" stroke-width="0.8"/>
<text x="340" y="567" text-anchor="middle" font-size="12" font-weight="600" fill="#C04828">5V</text>
<rect x="263" y="584" width="154" height="32" rx="5" fill="#f0f0f0" stroke="#bbb" stroke-width="0.5"/>
<text x="340" y="605" text-anchor="middle" font-size="12" fill="#555">3.3V</text>
<rect x="263" y="622" width="154" height="32" rx="5" fill="#e2f5ee" stroke="#0F6E56" stroke-width="0.8"/>
<text x="340" y="643" text-anchor="middle" font-size="12" font-weight="600" fill="#0F6E56">GND</text>

<!-- LEFT: DFPlayer Mini -->
<rect x="20" y="30" width="120" height="160" rx="8" fill="none" stroke="#aaa" stroke-width="1" stroke-dasharray="4 3"/>
<text x="80" y="22" text-anchor="middle" font-size="11" font-weight="600" fill="#333">DFPlayer Mini</text>
<rect x="26" y="38"  width="108" height="22" rx="4" fill="#fde8e2" stroke="#C04828" stroke-width="0.5"/><text x="80" y="53"  text-anchor="middle" font-size="11" fill="#C04828">VCC (5V)</text>
<rect x="26" y="66"  width="108" height="22" rx="4" fill="#f5f5f5" stroke="#ccc" stroke-width="0.4"/><text x="80" y="81"  text-anchor="middle" font-size="11" fill="#333">RX</text>
<rect x="26" y="94"  width="108" height="22" rx="4" fill="#f5f5f5" stroke="#ccc" stroke-width="0.4"/><text x="80" y="109" text-anchor="middle" font-size="11" fill="#333">TX</text>
<rect x="26" y="122" width="108" height="22" rx="4" fill="#f5f5f5" stroke="#ccc" stroke-width="0.4"/><text x="80" y="137" text-anchor="middle" font-size="11" fill="#333">DAC_R → AMP</text>
<rect x="26" y="150" width="108" height="22" rx="4" fill="#e2f5ee" stroke="#0F6E56" stroke-width="0.5"/><text x="80" y="165" text-anchor="middle" font-size="11" fill="#0F6E56">GND</text>

<!-- LEFT: Speaker AMP -->
<rect x="20" y="210" width="120" height="100" rx="8" fill="none" stroke="#aaa" stroke-width="1" stroke-dasharray="4 3"/>
<text x="80" y="203" text-anchor="middle" font-size="11" font-weight="600" fill="#333">Speaker AMP</text>
<rect x="26" y="218" width="108" height="22" rx="4" fill="#fde8e2" stroke="#C04828" stroke-width="0.5"/><text x="80" y="233" text-anchor="middle" font-size="11" fill="#C04828">VCC (5V)</text>
<rect x="26" y="246" width="108" height="22" rx="4" fill="#e2f5ee" stroke="#0F6E56" stroke-width="0.5"/><text x="80" y="261" text-anchor="middle" font-size="11" fill="#0F6E56">GND</text>
<rect x="26" y="274" width="108" height="22" rx="4" fill="#f5f5f5" stroke="#ccc" stroke-width="0.4"/><text x="80" y="289" text-anchor="middle" font-size="11" fill="#333">S (signal)</text>

<!-- LEFT: Time Monitor (TM1637) -->
<rect x="20" y="330" width="120" height="120" rx="8" fill="none" stroke="#aaa" stroke-width="1" stroke-dasharray="4 3"/>
<text x="80" y="323" text-anchor="middle" font-size="11" font-weight="600" fill="#333">Time Monitor</text>
<rect x="26" y="338" width="108" height="22" rx="4" fill="#fde8e2" stroke="#C04828" stroke-width="0.5"/><text x="80" y="353" text-anchor="middle" font-size="11" fill="#C04828">VCC (5V)</text>
<rect x="26" y="366" width="108" height="22" rx="4" fill="#e2f5ee" stroke="#0F6E56" stroke-width="0.5"/><text x="80" y="381" text-anchor="middle" font-size="11" fill="#0F6E56">GND</text>
<rect x="26" y="394" width="108" height="22" rx="4" fill="#f5f5f5" stroke="#ccc" stroke-width="0.4"/><text x="80" y="409" text-anchor="middle" font-size="11" fill="#333">CLK</text>
<rect x="26" y="418" width="108" height="22" rx="4" fill="#f5f5f5" stroke="#ccc" stroke-width="0.4"/><text x="80" y="433" text-anchor="middle" font-size="11" fill="#333">DIO</text>

<!-- LEFT: Touch Sensor -->
<rect x="20" y="470" width="120" height="100" rx="8" fill="none" stroke="#aaa" stroke-width="1" stroke-dasharray="4 3"/>
<text x="80" y="463" text-anchor="middle" font-size="11" font-weight="600" fill="#333">Touch Sensor</text>
<rect x="26" y="478" width="108" height="22" rx="4" fill="#fde8e2" stroke="#C04828" stroke-width="0.5"/><text x="80" y="493" text-anchor="middle" font-size="11" fill="#C04828">VCC (5V)</text>
<rect x="26" y="506" width="108" height="22" rx="4" fill="#e2f5ee" stroke="#0F6E56" stroke-width="0.5"/><text x="80" y="521" text-anchor="middle" font-size="11" fill="#0F6E56">GND</text>
<rect x="26" y="534" width="108" height="22" rx="4" fill="#f5f5f5" stroke="#ccc" stroke-width="0.4"/><text x="80" y="549" text-anchor="middle" font-size="11" fill="#333">SIG</text>

<!-- RIGHT: TFT 1.8 Monitor -->
<rect x="540" y="30" width="124" height="196" rx="8" fill="none" stroke="#aaa" stroke-width="1" stroke-dasharray="4 3"/>
<text x="602" y="22" text-anchor="middle" font-size="11" font-weight="600" fill="#333">TFT 1.8 Monitor</text>
<rect x="546" y="38"  width="112" height="22" rx="4" fill="#e2f5ee" stroke="#0F6E56" stroke-width="0.5"/><text x="602" y="53"  text-anchor="middle" font-size="11" fill="#0F6E56">BL (3.3V)</text>
<rect x="546" y="66"  width="112" height="22" rx="4" fill="#f5f5f5" stroke="#ccc" stroke-width="0.4"/><text x="602" y="81"  text-anchor="middle" font-size="11" fill="#333">CS</text>
<rect x="546" y="94"  width="112" height="22" rx="4" fill="#f5f5f5" stroke="#ccc" stroke-width="0.4"/><text x="602" y="109" text-anchor="middle" font-size="11" fill="#333">DC</text>
<rect x="546" y="122" width="112" height="22" rx="4" fill="#f5f5f5" stroke="#ccc" stroke-width="0.4"/><text x="602" y="137" text-anchor="middle" font-size="11" fill="#333">RES</text>
<rect x="546" y="150" width="112" height="22" rx="4" fill="#f5f5f5" stroke="#ccc" stroke-width="0.4"/><text x="602" y="165" text-anchor="middle" font-size="11" fill="#333">SDA (MOSI)</text>
<rect x="546" y="178" width="112" height="22" rx="4" fill="#f5f5f5" stroke="#ccc" stroke-width="0.4"/><text x="602" y="193" text-anchor="middle" font-size="11" fill="#333">SCK</text>
<rect x="546" y="206" width="112" height="22" rx="4" fill="#fde8e2" stroke="#C04828" stroke-width="0.5"/><text x="602" y="221" text-anchor="middle" font-size="11" fill="#C04828">VCC (5V)</text>

<!-- RIGHT: SD Module -->
<rect x="540" y="290" width="124" height="168" rx="8" fill="none" stroke="#aaa" stroke-width="1" stroke-dasharray="4 3"/>
<text x="602" y="282" text-anchor="middle" font-size="11" font-weight="600" fill="#333">SD Module</text>
<rect x="546" y="298" width="112" height="22" rx="4" fill="#fde8e2" stroke="#C04828" stroke-width="0.5"/><text x="602" y="313" text-anchor="middle" font-size="11" fill="#C04828">VCC (5V)</text>
<rect x="546" y="326" width="112" height="22" rx="4" fill="#e2f5ee" stroke="#0F6E56" stroke-width="0.5"/><text x="602" y="341" text-anchor="middle" font-size="11" fill="#0F6E56">GND</text>
<rect x="546" y="354" width="112" height="22" rx="4" fill="#f5f5f5" stroke="#ccc" stroke-width="0.4"/><text x="602" y="369" text-anchor="middle" font-size="11" fill="#333">CS</text>
<rect x="546" y="382" width="112" height="22" rx="4" fill="#f5f5f5" stroke="#ccc" stroke-width="0.4"/><text x="602" y="397" text-anchor="middle" font-size="11" fill="#333">MOSI</text>
<rect x="546" y="410" width="112" height="22" rx="4" fill="#f5f5f5" stroke="#ccc" stroke-width="0.4"/><text x="602" y="425" text-anchor="middle" font-size="11" fill="#333">MISO</text>
<rect x="546" y="438" width="112" height="22" rx="4" fill="#f5f5f5" stroke="#ccc" stroke-width="0.4"/><text x="602" y="453" text-anchor="middle" font-size="11" fill="#333">SCK</text>

<!-- RIGHT: Vibration Module -->
<rect x="540" y="490" width="124" height="100" rx="8" fill="none" stroke="#aaa" stroke-width="1" stroke-dasharray="4 3"/>
<text x="602" y="482" text-anchor="middle" font-size="11" font-weight="600" fill="#333">Vibration Module</text>
<rect x="546" y="498" width="112" height="22" rx="4" fill="#fde8e2" stroke="#C04828" stroke-width="0.5"/><text x="602" y="513" text-anchor="middle" font-size="11" fill="#C04828">VCC (5V)</text>
<rect x="546" y="526" width="112" height="22" rx="4" fill="#e2f5ee" stroke="#0F6E56" stroke-width="0.5"/><text x="602" y="541" text-anchor="middle" font-size="11" fill="#0F6E56">GND</text>
<rect x="546" y="554" width="112" height="22" rx="4" fill="#f5f5f5" stroke="#ccc" stroke-width="0.4"/><text x="602" y="569" text-anchor="middle" font-size="11" fill="#333">IN</text>

<!-- SIGNAL WIRES (purple dashed) -->
<path fill="none" stroke="#7F77DD" stroke-width="1" stroke-dasharray="5 3" d="M263,95 L230,95 L230,77 L134,77"/>
<text x="185" y="88" text-anchor="middle" font-size="10" fill="#534AB7">1kΩ</text>
<path fill="none" stroke="#7F77DD" stroke-width="1" stroke-dasharray="5 3" d="M263,62 L240,62 L240,109 L134,109"/>
<path fill="none" stroke="#7F77DD" stroke-width="1" stroke-dasharray="5 3" d="M263,138 L250,138 L250,409 L134,409"/>
<path fill="none" stroke="#7F77DD" stroke-width="1" stroke-dasharray="5 3" d="M263,176 L245,176 L245,433 L134,433"/>
<path fill="none" stroke="#7F77DD" stroke-width="1" stroke-dasharray="5 3" d="M263,214 L245,214 L245,549 L134,549"/>
<path fill="none" stroke="#7F77DD" stroke-width="1" stroke-dasharray="5 3" d="M417,252 L445,252 L445,364 L540,364"/>
<text x="476" y="245" text-anchor="middle" font-size="10" fill="#534AB7">1kΩ</text>
<path fill="none" stroke="#7F77DD" stroke-width="1" stroke-dasharray="5 3" d="M417,290 L475,290 L475,133 L540,133"/>
<path fill="none" stroke="#7F77DD" stroke-width="1" stroke-dasharray="5 3" d="M417,328 L480,328 L480,105 L540,105"/>
<path fill="none" stroke="#7F77DD" stroke-width="1" stroke-dasharray="5 3" d="M417,366 L485,366 L485,77 L540,77"/>
<path fill="none" stroke="#7F77DD" stroke-width="1" stroke-dasharray="5 3" d="M417,404 L490,404 L490,161 L540,161"/>
<path fill="none" stroke="#7F77DD" stroke-width="1.5" stroke-dasharray="3 2" opacity="0.6" d="M490,404 L490,393 L540,393"/>
<path fill="none" stroke="#7F77DD" stroke-width="1" stroke-dasharray="5 3" d="M417,480 L495,480 L495,189 L540,189"/>
<path fill="none" stroke="#7F77DD" stroke-width="1.5" stroke-dasharray="3 2" opacity="0.6" d="M495,480 L495,449 L540,449"/>
<path fill="none" stroke="#7F77DD" stroke-width="1" stroke-dasharray="5 3" d="M540,421 L500,421 L500,442 L417,442"/>
<path fill="none" stroke="#7F77DD" stroke-width="1" stroke-dasharray="5 3" d="M417,518 L540,518 L540,565"/>

<!-- 5V power (red) -->
<line x1="263" y1="562" x2="220" y2="562" stroke="#C04828" stroke-width="1.5" stroke-opacity="0.7"/>
<line x1="220" y1="562" x2="220" y2="50"  stroke="#C04828" stroke-width="1.5" stroke-opacity="0.7" stroke-dasharray="5 2"/>
<line x1="220" y1="50"  x2="26"  y2="50"  stroke="#C04828" stroke-width="1.2" stroke-opacity="0.6"/>
<line x1="220" y1="220" x2="134" y2="220" stroke="#C04828" stroke-width="1.2" stroke-opacity="0.6"/>
<line x1="220" y1="340" x2="134" y2="340" stroke="#C04828" stroke-width="1.2" stroke-opacity="0.6"/>
<line x1="220" y1="490" x2="134" y2="490" stroke="#C04828" stroke-width="1.2" stroke-opacity="0.6"/>
<line x1="417" y1="562" x2="460" y2="562" stroke="#C04828" stroke-width="1.5" stroke-opacity="0.7"/>
<line x1="460" y1="562" x2="460" y2="217" stroke="#C04828" stroke-width="1.5" stroke-opacity="0.7" stroke-dasharray="5 2"/>
<line x1="460" y1="217" x2="540" y2="217" stroke="#C04828" stroke-width="1.2" stroke-opacity="0.6"/>
<line x1="460" y1="310" x2="540" y2="310" stroke="#C04828" stroke-width="1.2" stroke-opacity="0.6"/>
<line x1="460" y1="510" x2="540" y2="510" stroke="#C04828" stroke-width="1.2" stroke-opacity="0.6"/>

<!-- 3.3V BL -->
<path fill="none" stroke="#888" stroke-width="1.2" stroke-dasharray="4 2" opacity="0.5" d="M417,600 L455,600 L455,50 L540,50"/>

<!-- GND (green) -->
<line x1="263" y1="638" x2="215" y2="638" stroke="#0F6E56" stroke-width="1.5"/>
<line x1="215" y1="638" x2="215" y2="163" stroke="#0F6E56" stroke-width="1.5" stroke-dasharray="5 2"/>
<line x1="215" y1="163" x2="26"  y2="163" stroke="#0F6E56" stroke-width="1.2"/>
<line x1="215" y1="258" x2="134" y2="258" stroke="#0F6E56" stroke-width="1.2"/>
<line x1="215" y1="368" x2="134" y2="368" stroke="#0F6E56" stroke-width="1.2"/>
<line x1="215" y1="518" x2="134" y2="518" stroke="#0F6E56" stroke-width="1.2"/>
<line x1="417" y1="638" x2="465" y2="638" stroke="#0F6E56" stroke-width="1.5"/>
<line x1="465" y1="638" x2="465" y2="340" stroke="#0F6E56" stroke-width="1.5" stroke-dasharray="5 2"/>
<line x1="465" y1="340" x2="540" y2="340" stroke="#0F6E56" stroke-width="1.2"/>
<line x1="465" y1="540" x2="540" y2="540" stroke="#0F6E56" stroke-width="1.2"/>

<!-- LEGEND -->
<rect x="220" y="680" width="240" height="110" rx="8" fill="#f8f8f6" stroke="#ddd" stroke-width="0.5"/>
<text x="340" y="700" text-anchor="middle" font-size="12" font-weight="600" fill="#333">Legend</text>
<line x1="236" y1="718" x2="280" y2="718" stroke="#C04828" stroke-width="1.5" stroke-opacity="0.8"/>
<text x="290" y="722" font-size="11" fill="#555">5V power</text>
<line x1="236" y1="736" x2="280" y2="736" stroke="#0F6E56" stroke-width="1.5" stroke-dasharray="5 2"/>
<text x="290" y="740" font-size="11" fill="#555">GND</text>
<line x1="236" y1="754" x2="280" y2="754" stroke="#7F77DD" stroke-width="1" stroke-dasharray="5 3"/>
<text x="290" y="758" font-size="11" fill="#555">Signal wire</text>
<line x1="236" y1="772" x2="280" y2="772" stroke="#888" stroke-width="1" stroke-dasharray="4 2" opacity="0.6"/>
<text x="290" y="776" font-size="11" fill="#555">3.3V (BL only)</text>
<text x="340" y="808" text-anchor="middle" font-size="10" fill="#888">D11/D12/D13: shared SPI bus (TFT + SD)</text>
</svg>
